<?xml version="1.0" encoding="UTF-8"?>
<svg id="weaviate_logos" xmlns="http://www.w3.org/2000/svg" xmlns:xlink="http://www.w3.org/1999/xlink" xmlns:i="http://ns.adobe.com/AdobeIllustrator/10.0/" version="1.1" viewBox="0 0 614.6 106">
  <!-- Generator: Adobe Illustrator 29.0.1, SVG Export Plug-In . SVG Version: 2.1.0 Build 192)  -->
  <defs>
    <style>
      .st0 {
        fill: url(#linear-gradient2);
      }

      .st1 {
        fill: url(#linear-gradient1);
      }

      .st2 {
        fill: url(#linear-gradient3);
      }

      .st3 {
        fill: url(#linear-gradient6);
      }

      .st4 {
        fill: url(#linear-gradient8);
      }

      .st5 {
        fill: url(#linear-gradient7);
      }

      .st6 {
        fill: url(#linear-gradient5);
      }

      .st7 {
        fill: url(#linear-gradient4);
      }

      .st8 {
        fill: url(#linear-gradient);
      }

      .st9 {
        fill: #ffffff;
      }
    </style>
    <linearGradient id="linear-gradient" x1="84.2" y1="-2328.6" x2="72.6" y2="-2442.5" gradientTransform="translate(0 2433.9)" gradientUnits="userSpaceOnUse">
      <stop offset="0" stop-color="#75be2c"/>
      <stop offset=".9" stop-color="#9dc03b"/>
    </linearGradient>
    <linearGradient id="linear-gradient1" x1="78.7" y1="-2376.1" x2="78.7" y2="-2338.8" gradientTransform="translate(0 2433.9)" gradientUnits="userSpaceOnUse">
      <stop offset="0" stop-color="#238d37"/>
      <stop offset=".9" stop-color="#35537f"/>
    </linearGradient>
    <linearGradient id="linear-gradient2" x1="74.7" y1="-2395.4" x2="80.5" y2="-2357.4" gradientTransform="translate(0 2433.9)" gradientUnits="userSpaceOnUse">
      <stop offset="0" stop-color="#67d84d"/>
      <stop offset="1" stop-color="#348522"/>
    </linearGradient>
    <linearGradient id="linear-gradient3" x1="132.4" y1="-2425.4" x2="132.4" y2="-2359.2" gradientTransform="translate(0 2433.9)" gradientUnits="userSpaceOnUse">
      <stop offset="0" stop-color="#e4d00a"/>
      <stop offset=".6" stop-color="#c4d132"/>
    </linearGradient>
    <linearGradient id="linear-gradient4" x1="24.8" y1="-2425.4" x2="24.8" y2="-2359.2" gradientTransform="translate(0 2433.9)" gradientUnits="userSpaceOnUse">
      <stop offset="0" stop-color="#e4d00a"/>
      <stop offset=".6" stop-color="#c4d132"/>
    </linearGradient>
    <linearGradient id="linear-gradient5" x1="117.3" y1="-2358.4" x2="117.3" y2="-2336.3" gradientTransform="translate(0 2433.9)" gradientUnits="userSpaceOnUse">
      <stop offset="0" stop-color="#8ab11b"/>
      <stop offset="1" stop-color="#6eaf02"/>
    </linearGradient>
    <linearGradient id="linear-gradient6" x1="133.3" y1="-2385.1" x2="128.7" y2="-2347.9" gradientTransform="translate(0 2433.9)" gradientUnits="userSpaceOnUse">
      <stop offset="0" stop-color="#75be2c"/>
      <stop offset=".9" stop-color="#9dc03b"/>
    </linearGradient>
    <linearGradient id="linear-gradient7" x1="40" y1="-2358.3" x2="40" y2="-2336.4" gradientTransform="translate(0 2433.9)" gradientUnits="userSpaceOnUse">
      <stop offset="0" stop-color="#8ab11b"/>
      <stop offset="1" stop-color="#6eaf02"/>
    </linearGradient>
    <linearGradient id="linear-gradient8" x1="28.4" y1="-2384.9" x2="23.8" y2="-2340.2" gradientTransform="translate(0 2433.9)" gradientUnits="userSpaceOnUse">
      <stop offset="0" stop-color="#75be2c"/>
      <stop offset=".9" stop-color="#9dc03b"/>
    </linearGradient>
  </defs>
  <g>
    <path class="st8" d="M147.6,24.3l-25.5-14.8c-4.3-2.5-9.7.6-9.7,5.6v37.5l-18.1-10.4c-9.7-5.6-21.7-5.6-31.4,0l-18.1,10.4V15c0-5-5.4-8-9.7-5.6l-25.5,14.9c-3,1.7-4.8,4.9-4.8,8.3v35.3c0,2.5.6,4.8,1.8,6.9h0c1.2,2.1,2.8,3.9,4.9,5.3l13.2,8.4,10.1,6.4c6.1,3.9,13.8,3.5,19.6-.8l.8-.6c0,0,.1-.1.2-.2l15.2-11.6c4.4-3.4,11.7-3.4,16.2,0l15.1,11.5s0,0,0,0l.9.7c5.7,4.3,13.5,4.6,19.6.8l10.1-6.4,13.2-8.4c2.1-1.3,3.8-3.2,4.9-5.3s1.8-4.4,1.8-6.9v-35.2h0c0-3.4-1.8-6.6-4.8-8.3h0Z"/>
    <path class="st1" d="M112.6,75.4v12.7c0,3.9-2.8,7.1-6.2,7.1s-3-.7-4.6-1.9l-15.1-11.6c-4.4-3.4-11.7-3.4-16.2,0l-15.2,11.6c-1.5,1.1-2.5,1.5-3.9,1.5-3.5,0-6.7-2.6-6.7-6.8v-12.6l21.7-14c7.4-4.8,17-4.8,24.4,0l21.8,13.7v.3h0Z"/>
    <path class="st0" d="M112.4,52.5v23.1c0,0-21.5-13.8-21.5-13.8-7.4-4.8-16.9-4.8-24.4,0l-21.7,13.8v-23.1s18.1-10.4,18.1-10.4c9.7-5.6,21.6-5.6,31.4,0l18.1,10.4h0Z"/>
    <path class="st2" d="M152.4,32.6v35.2c0,2.5-.6,4.8-1.8,6.9l-38.2-22.2V15c0-5,5.4-8,9.7-5.6l25.5,14.8c3,1.7,4.8,4.9,4.8,8.3h0Z"/>
    <path class="st7" d="M44.8,15v37.6L6.6,74.8c-1.2-2.1-1.8-4.4-1.8-6.9v-35.3c0-3.4,1.8-6.6,4.8-8.3l25.5-14.8c4.3-2.5,9.7.6,9.7,5.6h0Z"/>
    <path class="st6" d="M105.9,94.7c3.4,0,6.6-2.7,6.6-6.5v-12.7s20.2,12.9,20.2,12.9l-10.2,6.5c-6.1,3.9-13.9,3.6-19.6-.8l-1-.8c1.4,1,2.6,1.4,4,1.4h0Z"/>
    <path class="st3" d="M150.6,74.8c-1.1,2.1-2.8,3.9-4.9,5.3l-13.2,8.4-20.1-12.8v-23.1c0,0,38.2,22.3,38.2,22.3h0Z"/>
    <path class="st5" d="M44.8,88.2c0,3.9,3.2,6.9,6.6,6.5,1.5-.2,2.7-.4,3.9-1.3l-.9.7c-5.7,4.3-13.5,4.6-19.6.8l-10.1-6.4h0s20.1-12.9,20.1-12.9v12.6h0Z"/>
    <path class="st4" d="M44.8,52.5v23.1l-20.1,12.9h0s-13.2-8.4-13.2-8.4c-2.1-1.3-3.8-3.2-4.9-5.3l38.2-22.2h0Z"/>
  </g>
  <g>
    <path class="st9" d="M607,54c1.8-1.6,2.7-4.3,2.7-8.1s-.5-4.7-1.6-7c-1.1-2.3-2.6-4.4-4.6-6.3-2-1.9-4.5-3.4-7.3-4.4-2.8-1.2-6-1.7-9.5-1.7-5.2,0-9.8,1.2-13.9,3.4-4,2.2-7.2,5.3-9.4,9.1-2.3,3.8-3.4,8.3-3.4,13.2s.6,7.2,1.8,10.4,3,6.1,5.3,8.6c2.3,2.4,5.2,4.4,8.6,5.8,3.3,1.4,7.2,2.1,11.4,2.1s7.2-.4,10.2-1.3c3-.8,5.5-1.9,7.2-3.1,1.9-1.3,2.8-2.6,2.8-3.8s0-1.2-.2-1.8-.5-1.1-.9-1.8c-.4-.8-1-1.4-1.8-1.6-.7-.3-1.4-.4-2.2-.2-.6.2-1.3.4-1.9.8,0,0,0,0,0,0-.5.3-1.2.7-1.9,1-.7.3-1.6.7-2.7,1-1,.3-2.2.6-3.5.8-1.3.2-3,.3-4.9.3s-5.1-.6-7.6-1.7c-2.5-1.1-4.5-2.8-6.2-4.8-1.4-1.9-2.2-4.2-2.3-6.8h29.5c2.6,0,4.8-.8,6.6-2.3h0ZM599.7,46.1c0,1.2-.2,2-.7,2.2-.4.2-1.1.4-2.6.4h-25.5c0-2.2.7-4.2,2-6,1.4-2,3.3-3.6,5.7-4.7,2.5-1.2,5.2-1.8,8.2-1.8s4.8.5,6.7,1.4c2,.9,3.5,2.2,4.7,3.7,1.1,1.4,1.6,3,1.6,4.8h0Z"/>
    <path class="st9" d="M549,27.5c-.8-.2-1.7-.3-2.7-.3h-9.2c0,.1,0-13.3,0-13.3,0-1.1-.1-2-.3-2.7-.3-.9-.8-1.6-1.7-2-.8-.5-1.9-.7-3.3-.7s-2.5.2-3.3.8c-.8.5-1.3,1.1-1.5,2-.2.8-.3,1.7-.3,2.8v13.4h-4.7c-1.6,0-2.8.4-3.5,1.3-.7.8-1.1,2.1-1.1,3.9s.3,3.1.8,3.9c0,0,0,0,0,0,.7.9,1.9,1.3,3.6,1.3h4.9c0,0,0,23.5,0,23.5,0,3.3.3,6.1,1,8.3.7,2.2,1.8,4.1,3.3,5.6,1.5,1.4,3.5,2.5,5.8,3.2,2.3.7,5.2,1,8.5,1s1.8-.1,2.5-.3c1-.2,1.7-.7,2.1-1.5.5-.8.7-2,.7-3.5s-.2-2.5-.6-3.2c-.4-.8-1.1-1.3-2-1.6-.8-.2-1.7-.3-2.9-.3s-2.9,0-4-.2c-1-.1-1.8-.4-2.3-.9-.5-.5-.9-1.2-1.2-2.1-.3-1.1-.4-2.5-.4-4.3v-23.5h9.3c1,.1,1.9,0,2.7-.2.9-.3,1.5-.8,2-1.7.4-.8.6-1.9.6-3.4s-.2-2.6-.7-3.3c-.4-.9-1.1-1.4-2-1.6h0Z"/>
    <path class="st9" d="M507.1,27.3c-.7-.5-1.7-.8-3.2-.8s-3.1.4-4,1.2c-.8.8-1.2,2.1-1.2,3.8v2.3c-.8-1-1.8-1.9-2.8-2.8-1.6-1.4-3.5-2.5-5.7-3.3-2.2-.9-4.9-1.3-8.1-1.3s-6.6.7-9.6,2.1c-2.9,1.4-5.5,3.3-7.8,5.7-2.3,2.4-4.1,5.2-5.4,8.4-1.2,3.1-1.8,6.5-1.8,10s.6,7,1.8,10.2c1.3,3.2,3,6,5.2,8.5,2.3,2.5,4.9,4.4,7.8,5.8,3,1.4,6.2,2.1,9.7,2.1s6.5-.6,9-1.7c2.4-1.2,4.4-2.5,5.9-4,.7-.7,1.3-1.4,1.8-2l-.2,2.8h0c.2,1.6.6,2.8,1.3,3.5,0,0,0,0,0,0,.8.8,2.1,1.1,3.8,1.1s2.5-.2,3.3-.7c.8-.4,1.3-1.2,1.6-2.1.2-.8.3-1.8.3-2.8v-40.9c0-1.2-.1-2.2-.3-3.1-.2-.9-.8-1.7-1.5-2.2h0ZM498.2,52.8c0,3.1-.7,5.9-2,8.4-1.2,2.3-3,4.3-5.3,5.7-2.2,1.4-4.6,2.1-7.2,2.1s-5.9-.7-8.3-2c-2.3-1.4-4.2-3.3-5.5-5.7-1.3-2.4-2-5.2-2-8.2s.7-5.9,2-8.3c1.3-2.4,3.1-4.4,5.4-5.8,2.3-1.5,5.1-2.2,8.2-2.2s5.1.7,7.2,2.1c2.2,1.3,4,3.2,5.4,5.7,1.4,2.3,2.1,5.2,2.1,8.3h0Z"/>
    <g>
      <path class="st9" d="M446.5,27.2c-.8-.5-1.8-.7-3.3-.7s-2.6.2-3.5.6c-.8.4-1.3,1.1-1.6,2-.2.8-.3,1.7-.3,2.7v42.1c0,1,.1,1.9.3,2.7.3.9.8,1.5,1.6,2,.8.5,1.9.7,3.4.7s2.5-.2,3.2-.6c.9-.4,1.4-1.1,1.7-2,.2-.8.3-1.7.3-2.7V32c0-1.1-.1-2.1-.3-2.8-.3-.9-.8-1.5-1.5-2h0Z"/>
      <path class="st9" d="M446.9,9.1c-.9-.5-2.1-.7-3.7-.7s-2.9.2-3.8.7c-.9.4-1.6,1.2-1.9,2.2-.3.8-.5,1.9-.5,3.1s.1,2.2.3,3.1c0,0,0,0,0,0,.3,1,1,1.8,1.9,2.4,0,0,0,0,0,0,.9.5,2.1.7,3.8.7s2.9-.2,3.8-.7c.9-.5,1.5-1.2,1.8-2.2.3-.9.5-2,.5-3.1s-.1-2.2-.4-3.1c-.3-1-.9-1.8-1.8-2.3h0Z"/>
    </g>
    <path class="st9" d="M425.5,27.4c-2.2-1.1-3.9-1.2-5-.3-1,.8-1.9,2-2.7,3.7l-14.5,34.4-14.9-35.5c-.8-1.8-1.8-2.8-3-3.1-1.1-.3-2.5,0-4,.7-1.7.8-2.8,1.8-3.2,2.8-.5,1-.4,2.5.5,4.4l19.2,42s0,0,0,0c.5,1,1.2,1.8,2.1,2.2.9.4,1.9.6,3.2.6s2.5-.2,3.4-.7c.9-.5,1.6-1.2,2-2.2l19.1-41.3c.7-1.4,1-2.7,1-3.9s-1.1-2.7-3.2-3.8h0Z"/>
    <path class="st9" d="M367.7,27.3c-.7-.5-1.7-.8-3.2-.8s-3.1.4-4,1.2c-.9.8-1.2,2.1-1.2,3.8v2.3c-.8-1-1.8-1.9-2.8-2.8-1.6-1.4-3.5-2.5-5.7-3.3-2.2-.9-4.9-1.3-8.1-1.3s-6.6.7-9.6,2.1c-2.9,1.4-5.5,3.3-7.8,5.7-2.3,2.4-4.1,5.2-5.4,8.4-1.2,3.1-1.8,6.5-1.8,10s.6,7,1.8,10.2c1.3,3.2,3,6,5.2,8.5,2.3,2.5,4.9,4.4,7.8,5.8,3,1.4,6.2,2.1,9.7,2.1s6.5-.6,9-1.7c2.4-1.2,4.4-2.5,5.9-4,.7-.7,1.3-1.4,1.8-2l-.2,2.8h0c.1,1.6.6,2.8,1.4,3.5,0,0,0,0,0,0,.8.8,2.1,1.1,3.8,1.1s2.5-.2,3.3-.7c.8-.4,1.3-1.2,1.6-2.1.2-.8.3-1.8.3-2.8v-40.9c0-1.2-.1-2.2-.3-3.1-.2-.9-.8-1.7-1.5-2.2h0ZM358.8,52.8c0,3.1-.7,5.9-2,8.4-1.2,2.3-3,4.3-5.3,5.7-2.2,1.4-4.6,2.1-7.2,2.1s-5.9-.7-8.3-2c-2.3-1.4-4.2-3.3-5.5-5.7-1.3-2.4-2-5.2-2-8.2s.7-5.9,2-8.3c1.3-2.4,3.1-4.4,5.4-5.8,2.3-1.5,5.1-2.2,8.2-2.2s5.1.7,7.2,2.1c2.2,1.3,4,3.2,5.4,5.7,1.4,2.3,2.1,5.2,2.1,8.3h0Z"/>
    <path class="st9" d="M303.5,32.7c-2-1.9-4.5-3.4-7.3-4.4-2.8-1.2-6-1.7-9.5-1.7-5.2,0-9.9,1.2-13.9,3.4-4,2.2-7.2,5.3-9.5,9.1-2.3,3.8-3.4,8.3-3.4,13.2s.6,7.2,1.8,10.4c1.2,3.2,3,6.1,5.3,8.6,2.4,2.4,5.2,4.4,8.6,5.8,3.3,1.4,7.2,2.1,11.4,2.1s7.2-.4,10.2-1.3c3-.8,5.5-1.9,7.2-3.1,1.9-1.3,2.8-2.6,2.8-3.8s0-1.2-.2-1.8c-.2-.6-.5-1.1-.9-1.8-.4-.8-1-1.4-1.8-1.6-.7-.3-1.4-.4-2.2-.2-.6.2-1.3.4-1.9.8,0,0,0,0,0,0-.5.3-1.2.7-1.9,1-.7.3-1.6.7-2.6,1-1,.3-2.2.6-3.5.8-1.4.2-3,.3-4.9.3s-5.1-.6-7.6-1.7c-2.5-1.1-4.5-2.8-6.2-4.8-1.4-1.9-2.2-4.2-2.3-6.8h29.5c2.6,0,4.8-.8,6.6-2.3,1.8-1.6,2.7-4.3,2.7-8.1s-.5-4.7-1.6-7c-1.1-2.3-2.6-4.4-4.6-6.3h0ZM299.7,46.1c0,1.2-.2,2-.7,2.2-.4.2-1.1.4-2.6.4h-25.5c0-2.2.7-4.2,2-6,1.4-2,3.3-3.6,5.7-4.7,2.5-1.2,5.2-1.8,8.1-1.8s4.8.5,6.7,1.4c2,.9,3.5,2.2,4.6,3.7,1.1,1.4,1.6,3,1.6,4.8h0Z"/>
    <path class="st9" d="M251.5,27.1c-1.8-.7-3.4-.8-4.5-.2-1.1.6-1.9,1.8-2.6,3.6l-11.1,29.8-10.2-29.7c-.2-.6-.5-1.2-1-1.8-.4-.6-1-1-1.6-1.4-.7-.4-1.6-.6-2.8-.6s-2,.2-2.7.6c-.7.4-1.3.9-1.7,1.6-.3.5-.5,1.1-.8,1.7l-10.4,29.4-11.1-30.1c-.6-1.7-1.5-2.8-2.6-3.2-1.1-.4-2.5-.3-4.3.4-1.1.4-2,.8-2.6,1.4,0,0,0,0,0,0-.6.6-.9,1.3-1,2.2h0c0,.8.2,1.8.6,2.9,0,0,0,0,0,0l16.1,41.4c.1.7.4,1.3.7,1.9,0,0,0,0,0,0,.4.6.9,1.1,1.6,1.4.7.4,1.7.6,2.8.6s1.9-.2,2.6-.5c.7-.3,1.2-.8,1.6-1.5.4-.6.7-1.3,1-2.2l10.5-30.5,10.5,30.5c.3.7.6,1.4,1,2.1,0,0,0,0,0,0,.4.7,1,1.2,1.6,1.5.7.3,1.5.5,2.6.5s2-.2,2.6-.6c.7-.3,1.3-.8,1.6-1.4.4-.6.7-1.2.9-1.8l16.1-41.4c.8-1.9.9-3.4.3-4.5-.6-1.1-1.7-1.9-3.3-2.4h0Z"/>
  </g>
</svg> 