<svg id="Layer_1" data-name="Layer 1" xmlns="http://www.w3.org/2000/svg" xmlns:xlink="http://www.w3.org/1999/xlink" viewBox="0 0 643.38 118.59"><defs><style>.cls-1{fill:none;}.cls-2{clip-path:url(#clip-path);}.cls-3{fill:url(#linear-gradient);}.cls-4{clip-path:url(#clip-path-2);}.cls-5{fill:url(#linear-gradient-2);}.cls-6{fill:#FFFFFF;}</style><clipPath id="clip-path" transform="translate(-175.62 -440.59)"><polygon class="cls-1" points="286.36 469.74 235.92 441.04 235.92 558.96 256.1 547.3 256.1 514.12 271.34 522.87 271.12 500.22 256.1 491.48 256.1 478.25 286.36 495.96 286.36 469.74"/></clipPath><linearGradient id="linear-gradient" x1="176.29" y1="837.89" x2="300.04" y2="837.89" gradientTransform="translate(0 -338)" gradientUnits="userSpaceOnUse"><stop offset="0" stop-color="#ff6f00"/><stop offset="1" stop-color="#ffa800"/></linearGradient><clipPath id="clip-path-2" transform="translate(-175.62 -440.59)"><polygon class="cls-1" points="181 469.74 231.44 441.04 231.44 558.96 211.26 547.3 211.26 478.25 181 495.96 181 469.74"/></clipPath><linearGradient id="linear-gradient-2" x1="175.62" y1="837.89" x2="299.36" y2="837.89" xlink:href="#linear-gradient"/></defs><title>TensorFlow Logo Vector</title><g class="cls-2"><path class="cls-3" d="M176.29,440.59H300V559.18H176.29Z" transform="translate(-175.62 -440.59)"/></g><g class="cls-4"><path class="cls-5" d="M175.62,440.59H299.36V559.18H175.62Z" transform="translate(-175.62 -440.59)"/></g><path class="cls-6" d="M377.6,477.58H355.18v62.1H342.63v-62.1H320.21V467.49H377.6Z" transform="translate(-175.62 -440.59)"/><path class="cls-6" d="M392.62,540.58c-7.62,0-13.9-2.47-18.61-7.18s-7.17-11.21-7.17-19.28v-1.57A31.87,31.87,0,0,1,370,498.21a24.78,24.78,0,0,1,8.74-9.87,22.76,22.76,0,0,1,12.56-3.58c7.39,0,13,2.24,17,6.95s6.06,11.2,6.06,19.72v4.93h-35.2a16.61,16.61,0,0,0,4.48,10.54,12.52,12.52,0,0,0,9.87,3.81A16,16,0,0,0,407,524l6.5,6.27a25.06,25.06,0,0,1-20.85,10.32Zm-1.34-46a9.92,9.92,0,0,0-8.07,3.36,16.66,16.66,0,0,0-3.82,9.64h23.09v-.89c-.22-4-1.34-7.18-3.13-9.2A12,12,0,0,0,391.28,494.62Zm43.49-8.74.44,6.27a19.37,19.37,0,0,1,15.7-7.17c11.2,0,16.81,6.5,17,19.28v35.42h-12.1V504.93c0-3.36-.67-5.83-2.24-7.62-1.57-1.57-3.82-2.47-7.18-2.47a11.73,11.73,0,0,0-11,6.51v38.1H423.33v-53.8ZM507,525.11a5.63,5.63,0,0,0-2.69-4.93,25.21,25.21,0,0,0-8.74-2.92,42.67,42.67,0,0,1-10.32-3.36c-6.05-2.92-9-7.17-9-12.55a14.86,14.86,0,0,1,5.83-11.66c3.81-3.14,9-4.71,14.79-4.71q9.75,0,15.47,4.71A14.88,14.88,0,0,1,518.16,502H506.05a7.53,7.53,0,0,0-2.69-5.83,9.61,9.61,0,0,0-6.95-2.24,11.47,11.47,0,0,0-6.5,1.79,5.94,5.94,0,0,0-2.46,4.93,5.07,5.07,0,0,0,2.24,4.26c1.57,1.12,4.71,2,9.41,3.14a41.4,41.4,0,0,1,11.21,3.81,14.88,14.88,0,0,1,6.05,5.16,14.35,14.35,0,0,1-4,19.05c-4,2.92-9.19,4.49-15.69,4.49A26,26,0,0,1,485,538.11a19,19,0,0,1-8.07-6.5,16.44,16.44,0,0,1-2.91-9h11.65a8.27,8.27,0,0,0,3.14,6.5,12.33,12.33,0,0,0,7.85,2.24,12.49,12.49,0,0,0,7.17-1.79,4.67,4.67,0,0,0,3.14-4.48Zm18.16-12.78a30.22,30.22,0,0,1,3.14-14.12,22.67,22.67,0,0,1,8.74-9.64,24.57,24.57,0,0,1,13-3.37c7.17,0,13.23,2.25,17.71,6.95s6.95,10.76,7.4,18.61v2.91A31,31,0,0,1,572,527.8a21.42,21.42,0,0,1-8.74,9.64A24.84,24.84,0,0,1,550,540.8c-7.62,0-13.67-2.47-18.16-7.62-4.48-4.93-6.72-11.66-7-20.18ZM537,513.45c0,5.6,1.12,9.86,3.36,13a12.05,12.05,0,0,0,16.81,2.24,10.62,10.62,0,0,0,2.25-2.24c2.24-3.14,3.36-7.84,3.36-13.9,0-5.38-1.12-9.64-3.59-13a12,12,0,0,0-16.59-2.46,23.73,23.73,0,0,0-2.46,2.24C538.33,502.47,537,507.17,537,513.45Zm74.2-16.36a35.71,35.71,0,0,0-4.93-.45c-5.61,0-9.19,2-11.21,6.27v36.77H582.94v-53.8h11.44l.22,6.05c2.92-4.71,6.95-6.95,12.11-6.95a14.07,14.07,0,0,1,4.26.67l.22,11.44ZM661.63,509H632.49v30.71H619.93V467.49h46v10.09h-33.4V499.1h29.14Zm24,30.71H673.51V467.27h12.11Zm8.74-27.35a30.34,30.34,0,0,1,3.14-14.12,22.74,22.74,0,0,1,8.74-9.64,24.59,24.59,0,0,1,13-3.37c7.18,0,13.23,2.25,17.71,6.95s6.95,10.76,7.4,18.61v2.91a34.07,34.07,0,0,1-2.91,14.13,21.5,21.5,0,0,1-8.75,9.64,24.81,24.81,0,0,1-13.22,3.36c-7.63,0-13.68-2.47-18.16-7.62-4.49-4.93-6.95-11.66-6.95-20.18v-.67Zm12.1,1.12c0,5.6,1.13,9.86,3.37,13a11,11,0,0,0,9.64,4.71,10.41,10.41,0,0,0,9.41-4.71c2.24-3.14,3.36-7.84,3.36-13.9,0-5.38-1.12-9.64-3.58-13a12,12,0,0,0-16.59-2.46,23.88,23.88,0,0,0-2.47,2.24C707.59,502.47,706.46,507.17,706.46,513.45Zm92.36,9.64,8.52-37H819l-14.57,53.8h-9.86l-11.44-37-11.43,37h-9.86L747,486.1h11.88l8.74,36.77,11-36.77h9.19l11,37Z" transform="translate(-175.62 -440.59)"/></svg> 