<?xml version='1.0' encoding='utf-8'?>
<!-- Generator: imaengine 6.0   -->
<svg xmlns:xlink="http://www.w3.org/1999/xlink" xmlns="http://www.w3.org/2000/svg" viewBox="-120,0,1320,385" style="enable-background:new 0 0 1200 385;" version="1.1">
<defs/>
<g id="layer0">
<g transform="matrix(2.0377 0 0 2.0377 -420.194 -830.341)">
<g transform="matrix(1 0 0 1 0 0)">
<path d="M367.87,430.2L367.87,518.01C367.87,537.98 357.11,556.54 339.78,566.47L339.64,566.56L339.59,566.59L339.54,566.62L315.31,580.46L291.07,594.31L287.04,596.62L283.01,594.31L258.77,580.46L234.54,566.62L234.49,566.59L234.44,566.56L234.3,566.47C216.97,556.54 206.21,537.98 206.21,518.01L206.21,430.2L210.31,427.87C233.64,414.54 260.17,407.49 287.04,407.49C313.91,407.49 340.45,414.54 363.77,427.87L367.87,430.2L367.87,430.2Z" fill="#24346B"/>
<path d="M287.04,476.47L214.34,434.92L214.34,518.01C214.34,535.13 223.51,550.95 238.39,559.45L238.58,559.56L238.58,531.86L262.82,545.71L262.82,573.4L287.05,587.25L287.05,504.16L311.29,490.32L311.29,573.4L335.52,559.56L335.53,559.55L335.53,476.75L359.76,462.9L359.76,434.92L287.04,476.47L287.04,476.47ZM262.81,518.01L238.57,504.16L238.57,476.47L262.81,490.32L262.81,518.01L262.81,518.01Z" fill="#10CFC9"/>
</g>
<g transform="matrix(1 0 0 1 0 0)">
<path d="M423.29,515.01L407.31,515.01L404.84,523.33L396.34,523.33L410.69,480.76L419.73,480.76L434.26,523.33L425.76,523.33L423.29,515.01L423.29,515.01ZM421.18,508.08L415.33,488.48L409.42,508.08L421.18,508.08L421.18,508.08Z" fill="#24346B"/>
<path d="M446.99,480.76L460.56,480.76C466.23,480.82 470.03,480.82 473.76,483.84C476.41,486.01 478.46,489.39 478.46,494.33C478.46,502.47 472.49,505.3 470.08,506.03L479.55,523.33L470.45,523.33L462.01,507.53L454.9,507.53L454.9,523.33L447,523.33L447,480.76L446.99,480.76ZM454.89,487.64L454.89,500.96L457.66,500.96C460.37,500.96 461.4,500.9 462.91,500.84C464.66,500.78 470.39,500.48 470.39,494.27C470.39,493.36 470.33,490.23 467.01,488.54C465.32,487.69 463.27,487.63 458.57,487.63L454.89,487.63L454.89,487.64Z" fill="#24346B"/>
<path d="M528.82,511.45C528.28,512.84 527.25,515.31 525.14,517.84C522.13,521.34 517.36,524.41 510.43,524.41C499.15,524.41 490.53,516.15 490.53,501.92C490.53,487.45 499.88,479.67 510.73,479.67C524,479.67 527.13,489.86 528.1,492.81L520.14,494.92C520.02,494.14 519.66,492.33 518.57,490.7C517.67,489.37 515.31,486.96 510.91,486.96C503.98,486.96 499.15,492.69 499.15,501.79C499.15,511.5 504.27,516.86 510.97,516.86C514.95,516.86 517.36,514.93 519.11,512.7C520.5,510.83 521.04,509.26 521.34,508.3L528.82,511.45L528.82,511.45Z" fill="#24346B"/>
<path d="M576.16,480.76L576.16,523.33L568.14,523.33L568.14,503.98L549.87,503.98L549.87,523.33L541.91,523.33L541.91,480.76L549.87,480.76L549.87,496.86L568.14,496.86L568.14,480.76L576.16,480.76L576.16,480.76Z" fill="#24346B"/>
<path d="M600.13,487.88L600.13,497.89L620.63,497.89L620.63,504.76L600.13,504.76L600.13,516.15L624.07,516.15L624.07,523.33L592.29,523.33L592.29,480.76L622.56,480.76L622.56,487.88L600.13,487.88L600.13,487.88Z" fill="#24346B"/>
<path d="M665.13,488L653.37,488L653.37,523.33L645.41,523.33L645.41,488L633.9,488L633.9,480.76L665.13,480.76L665.13,488L665.13,488Z" fill="#24346B"/>
<path d="M695.46,506.51L695.46,523.33L687.62,523.33L687.62,506.51L673.39,480.76L682.37,480.76L691.59,498.43L700.93,480.76L709.79,480.76L695.46,506.51L695.46,506.51Z" fill="#24346B"/>
<path d="M719.5,480.76L733.85,480.76C736.2,480.76 738.67,480.76 741.15,481.42C745.31,482.57 751.16,486.3 751.16,494.93C751.16,500.6 748.51,506.69 740.91,508.38C738.56,508.92 736.33,508.92 733.73,508.92L727.52,508.92L727.52,523.33L719.5,523.33L719.5,480.76L719.5,480.76ZM727.51,487.58L727.51,502.35L733.24,502.35C734.93,502.35 736.37,502.35 737.76,501.99C742.7,500.78 743.01,496.26 743.01,494.75C743.01,491.62 741.62,489.99 740.9,489.33C738.91,487.64 736.13,487.58 733.54,487.58L727.51,487.58L727.51,487.58Z" fill="#24346B"/>
<path d="M771.17,487.88L771.17,497.89L791.67,497.89L791.67,504.76L771.17,504.76L771.17,516.15L795.11,516.15L795.11,523.33L763.34,523.33L763.34,480.76L793.61,480.76L793.61,487.88L771.17,487.88L771.17,487.88Z" fill="#24346B"/>
</g>
</g>
</g>
</svg>
