<?xml version='1.0' encoding='utf-8'?>
<!-- Generator: imaengine 6.0   -->
<svg xmlns:xlink="http://www.w3.org/1999/xlink" xmlns="http://www.w3.org/2000/svg" viewBox="-120,0,1320,385" style="enable-background:new 0 0 1200 385;" version="1.1">
<defs/>
<g id="layer0">
<g transform="matrix(2.03773 0 0 2.03773 -622.639 -1029.95)">
<path d="M337.915,574.42L362.145,588.27L362.145,615.96L337.915,602.11L337.915,574.42Z" fill="#FFFFFF"/>
<path d="M463.115,525.82C439.785,512.49 413.245,505.44 386.375,505.44C359.505,505.44 332.975,512.49 309.645,525.82L305.555,528.15L305.555,615.97C305.555,635.94 316.315,654.5 333.645,664.43L333.785,664.51L333.835,664.54L333.885,664.56L358.115,678.4L382.355,692.25L386.375,694.56L390.405,692.25L414.645,678.4L438.875,664.56L438.925,664.54L438.975,664.51L439.115,664.43C456.445,654.5 467.205,635.94 467.205,615.97L467.205,528.15L463.115,525.82L463.115,525.82ZM459.085,560.85L434.855,574.7L434.855,657.51L434.845,657.51L410.615,671.36L410.615,588.27L386.375,602.11L386.375,685.21L362.145,671.36L362.145,643.66L337.915,629.81L337.915,657.51L337.725,657.4C322.845,648.9 313.675,633.09 313.675,615.96L313.675,532.87L386.375,574.42L459.085,532.87L459.085,560.85L459.085,560.85Z" fill="#FFFFFF"/>
<path d="M522.625,612.96L506.645,612.96L504.175,621.28L495.675,621.28L510.025,578.71L519.065,578.71L533.595,621.28L525.095,621.28L522.625,612.96L522.625,612.96ZM520.515,606.03L514.665,586.43L508.755,606.03L520.515,606.03L520.515,606.03Z" fill="#FFFFFF"/>
<path d="M546.325,578.72L559.895,578.72C565.565,578.78 569.365,578.78 573.095,581.8C575.745,583.97 577.795,587.35 577.795,592.29C577.795,600.43 571.825,603.26 569.415,603.99L578.885,621.29L569.785,621.29L561.345,605.49L554.235,605.49L554.235,621.29L546.335,621.29L546.335,578.72L546.325,578.72ZM554.225,585.59L554.225,598.91L556.995,598.91C559.705,598.91 560.735,598.85 562.245,598.79C563.995,598.73 569.725,598.43 569.725,592.22C569.725,591.31 569.665,588.18 566.345,586.49C564.655,585.64 562.605,585.58 557.905,585.58L554.225,585.58L554.225,585.59Z" fill="#FFFFFF"/>
<path d="M628.155,609.41C627.615,610.8 626.585,613.27 624.475,615.8C621.465,619.3 616.695,622.37 609.765,622.37C598.485,622.37 589.865,614.11 589.865,599.88C589.865,585.41 599.215,577.63 610.065,577.63C623.335,577.63 626.465,587.82 627.435,590.77L619.475,592.88C619.355,592.1 618.995,590.29 617.905,588.66C617.005,587.33 614.645,584.92 610.245,584.92C603.315,584.92 598.485,590.65 598.485,599.75C598.485,609.46 603.605,614.82 610.305,614.82C614.285,614.82 616.695,612.89 618.445,610.66C619.835,608.79 620.375,607.22 620.675,606.26L628.155,609.41L628.155,609.41Z" fill="#FFFFFF"/>
<path d="M675.485,578.72L675.485,621.29L667.465,621.29L667.465,601.94L649.195,601.94L649.195,621.29L641.235,621.29L641.235,578.72L649.195,578.72L649.195,594.82L667.465,594.82L667.465,578.72L675.485,578.72L675.485,578.72Z" fill="#FFFFFF"/>
<path d="M699.465,585.83L699.465,595.84L719.965,595.84L719.965,602.71L699.465,602.71L699.465,614.1L723.405,614.1L723.405,621.28L691.625,621.28L691.625,578.71L721.895,578.71L721.895,585.83L699.465,585.83L699.465,585.83Z" fill="#FFFFFF"/>
<path d="M764.465,585.95L752.705,585.95L752.705,621.28L744.745,621.28L744.745,585.95L733.235,585.95L733.235,578.71L764.465,578.71L764.465,585.95L764.465,585.95Z" fill="#FFFFFF"/>
<path d="M794.795,604.46L794.795,621.28L786.955,621.28L786.955,604.46L772.725,578.71L781.705,578.71L790.925,596.38L800.265,578.71L809.125,578.71L794.795,604.46L794.795,604.46Z" fill="#FFFFFF"/>
<path d="M818.825,578.72L833.175,578.72C835.525,578.72 837.995,578.72 840.475,579.38C844.635,580.53 850.485,584.26 850.485,592.89C850.485,598.56 847.835,604.65 840.235,606.34C837.885,606.88 835.655,606.88 833.055,606.88L826.845,606.88L826.845,621.29L818.825,621.29L818.825,578.72L818.825,578.72ZM826.845,585.53L826.845,600.3L832.575,600.3C834.265,600.3 835.705,600.3 837.095,599.94C842.035,598.73 842.345,594.21 842.345,592.7C842.345,589.57 840.955,587.94 840.235,587.28C838.245,585.59 835.465,585.53 832.875,585.53L826.845,585.53L826.845,585.53Z" fill="#FFFFFF"/>
<path d="M870.505,585.83L870.505,595.84L891.005,595.84L891.005,602.71L870.505,602.71L870.505,614.1L894.445,614.1L894.445,621.28L862.675,621.28L862.675,578.71L892.945,578.71L892.945,585.83L870.505,585.83L870.505,585.83Z" fill="#FFFFFF"/>
</g>
</g>
</svg>
